<?xml version="1.0" encoding="UTF-8"?>
<xmeml version="4">
	<project>
		<name>MasterSequenceProject</name>
		<children>
			<clip id="masterclip-1">
				<masterclipid>masterclip-1</masterclipid>
				<ismasterclip>TRUE</ismasterclip>
				<duration>500</duration>
				<rate>
					<timebase>30</timebase>
					<ntsc>FALSE</ntsc>
				</rate>
				<in>1</in>
				<out>500</out>
				<name>TS1</name>
				<media>
					<video>
						<track>
							<clipitem id="clipitem-1">
								<masterclipid>masterclip-1</masterclipid>
								<ismasterclip>TRUE</ismasterclip>
								<name>TS1</name>
								<enabled>TRUE</enabled>
								<duration>500</duration>
								<rate>
									<timebase>30</timebase>
									<ntsc>FALSE</ntsc>
								</rate>
								<in>1</in>
								<out>500</out>
								<anamorphic>FALSE</anamorphic>
								<pixelaspectratio>square</pixelaspectratio>
								<fielddominance>lower</fielddominance>
								<file id="file-1">
									<name>TS1.avi</name>
									<pathurl>file://localhost/C%3a/Users/Nicklas%20Sandin/Documents/GitHub/Attached/Content/Developers/NicklasSandin/Collections/TS1.avi</pathurl>
									<rate>
										<timebase>30</timebase>
										<ntsc>FALSE</ntsc>
									</rate>
									<duration>500</duration>
									<timecode>
										<rate>
											<timebase>30</timebase>
											<ntsc>FALSE</ntsc>
										</rate>
										<string>00:00:00:00</string>
										<frame>0</frame>
									</timecode>
									<media>
										<video>
											<samplecharacteristics>
												<rate>
													<timebase>30</timebase>
													<ntsc>FALSE</ntsc>
												</rate>
												<width>1280</width>
												<height>720</height>
												<anamorphic>FALSE</anamorphic>
												<pixelaspectratio>square</pixelaspectratio>
												<fielddominance>lower</fielddominance>
											</samplecharacteristics>
										</video>
									</media>
								</file>
							</clipitem>
						</track>
					</video>
				</media>
				<logginginfo>
					<description />
					<scene />
					<shottake />
					<good />
					<originalvideofilename />
					<originalaudiofilename />
					<lognote>[UE4ShotSection=/Game/Trailer/Version2/MasterSequence.MasterSequence:MovieScene_0.MovieSceneCinematicShotTrack_0.MovieSceneCinematicShotSection_1][UE4ShotStartOffset=0][UE4ShotHandleFrames=0]</lognote>
				</logginginfo>
				<colorinfo>
					<lut />
					<lut1 />
					<asc_sop />
					<asc_sat />
					<lut2 />
				</colorinfo>
			</clip>
			<clip id="masterclip-2">
				<masterclipid>masterclip-2</masterclipid>
				<ismasterclip>TRUE</ismasterclip>
				<duration>456</duration>
				<rate>
					<timebase>30</timebase>
					<ntsc>FALSE</ntsc>
				</rate>
				<in>1</in>
				<out>456</out>
				<name>TS2</name>
				<media>
					<video>
						<track>
							<clipitem id="clipitem-2">
								<masterclipid>masterclip-2</masterclipid>
								<ismasterclip>TRUE</ismasterclip>
								<name>TS2</name>
								<enabled>TRUE</enabled>
								<duration>456</duration>
								<rate>
									<timebase>30</timebase>
									<ntsc>FALSE</ntsc>
								</rate>
								<in>1</in>
								<out>456</out>
								<anamorphic>FALSE</anamorphic>
								<pixelaspectratio>square</pixelaspectratio>
								<fielddominance>lower</fielddominance>
								<file id="file-2">
									<name>TS2.avi</name>
									<pathurl>file://localhost/C%3a/Users/Nicklas%20Sandin/Documents/GitHub/Attached/Content/Developers/NicklasSandin/Collections/TS2.avi</pathurl>
									<rate>
										<timebase>30</timebase>
										<ntsc>FALSE</ntsc>
									</rate>
									<duration>456</duration>
									<timecode>
										<rate>
											<timebase>30</timebase>
											<ntsc>FALSE</ntsc>
										</rate>
										<string>00:00:00:00</string>
										<frame>0</frame>
									</timecode>
									<media>
										<video>
											<samplecharacteristics>
												<rate>
													<timebase>30</timebase>
													<ntsc>FALSE</ntsc>
												</rate>
												<width>1280</width>
												<height>720</height>
												<anamorphic>FALSE</anamorphic>
												<pixelaspectratio>square</pixelaspectratio>
												<fielddominance>lower</fielddominance>
											</samplecharacteristics>
										</video>
									</media>
								</file>
							</clipitem>
						</track>
					</video>
				</media>
				<logginginfo>
					<description />
					<scene />
					<shottake />
					<good />
					<originalvideofilename />
					<originalaudiofilename />
					<lognote>[UE4ShotSection=/Game/Trailer/Version2/MasterSequence.MasterSequence:MovieScene_0.MovieSceneCinematicShotTrack_0.MovieSceneCinematicShotSection_9][UE4ShotStartOffset=0][UE4ShotHandleFrames=0]</lognote>
				</logginginfo>
				<colorinfo>
					<lut />
					<lut1 />
					<asc_sop />
					<asc_sat />
					<lut2 />
				</colorinfo>
			</clip>
			<clip id="masterclip-3">
				<masterclipid>masterclip-3</masterclipid>
				<ismasterclip>TRUE</ismasterclip>
				<duration>385</duration>
				<rate>
					<timebase>30</timebase>
					<ntsc>FALSE</ntsc>
				</rate>
				<in>1</in>
				<out>385</out>
				<name>TS3</name>
				<media>
					<video>
						<track>
							<clipitem id="clipitem-3">
								<masterclipid>masterclip-3</masterclipid>
								<ismasterclip>TRUE</ismasterclip>
								<name>TS3</name>
								<enabled>TRUE</enabled>
								<duration>385</duration>
								<rate>
									<timebase>30</timebase>
									<ntsc>FALSE</ntsc>
								</rate>
								<in>1</in>
								<out>385</out>
								<anamorphic>FALSE</anamorphic>
								<pixelaspectratio>square</pixelaspectratio>
								<fielddominance>lower</fielddominance>
								<file id="file-3">
									<name>TS3.avi</name>
									<pathurl>file://localhost/C%3a/Users/Nicklas%20Sandin/Documents/GitHub/Attached/Content/Developers/NicklasSandin/Collections/TS3.avi</pathurl>
									<rate>
										<timebase>30</timebase>
										<ntsc>FALSE</ntsc>
									</rate>
									<duration>385</duration>
									<timecode>
										<rate>
											<timebase>30</timebase>
											<ntsc>FALSE</ntsc>
										</rate>
										<string>00:00:00:00</string>
										<frame>0</frame>
									</timecode>
									<media>
										<video>
											<samplecharacteristics>
												<rate>
													<timebase>30</timebase>
													<ntsc>FALSE</ntsc>
												</rate>
												<width>1280</width>
												<height>720</height>
												<anamorphic>FALSE</anamorphic>
												<pixelaspectratio>square</pixelaspectratio>
												<fielddominance>lower</fielddominance>
											</samplecharacteristics>
										</video>
									</media>
								</file>
							</clipitem>
						</track>
					</video>
				</media>
				<logginginfo>
					<description />
					<scene />
					<shottake />
					<good />
					<originalvideofilename />
					<originalaudiofilename />
					<lognote>[UE4ShotSection=/Game/Trailer/Version2/MasterSequence.MasterSequence:MovieScene_0.MovieSceneCinematicShotTrack_0.MovieSceneCinematicShotSection_10][UE4ShotStartOffset=115][UE4ShotHandleFrames=0]</lognote>
				</logginginfo>
				<colorinfo>
					<lut />
					<lut1 />
					<asc_sop />
					<asc_sat />
					<lut2 />
				</colorinfo>
			</clip>
			<clip id="masterclip-4">
				<masterclipid>masterclip-4</masterclipid>
				<ismasterclip>TRUE</ismasterclip>
				<duration>206</duration>
				<rate>
					<timebase>30</timebase>
					<ntsc>FALSE</ntsc>
				</rate>
				<in>1</in>
				<out>206</out>
				<name>TS4</name>
				<media>
					<video>
						<track>
							<clipitem id="clipitem-4">
								<masterclipid>masterclip-4</masterclipid>
								<ismasterclip>TRUE</ismasterclip>
								<name>TS4</name>
								<enabled>TRUE</enabled>
								<duration>206</duration>
								<rate>
									<timebase>30</timebase>
									<ntsc>FALSE</ntsc>
								</rate>
								<in>1</in>
								<out>206</out>
								<anamorphic>FALSE</anamorphic>
								<pixelaspectratio>square</pixelaspectratio>
								<fielddominance>lower</fielddominance>
								<file id="file-4">
									<name>TS4.avi</name>
									<pathurl>file://localhost/C%3a/Users/Nicklas%20Sandin/Documents/GitHub/Attached/Content/Developers/NicklasSandin/Collections/TS4.avi</pathurl>
									<rate>
										<timebase>30</timebase>
										<ntsc>FALSE</ntsc>
									</rate>
									<duration>206</duration>
									<timecode>
										<rate>
											<timebase>30</timebase>
											<ntsc>FALSE</ntsc>
										</rate>
										<string>00:00:00:00</string>
										<frame>0</frame>
									</timecode>
									<media>
										<video>
											<samplecharacteristics>
												<rate>
													<timebase>30</timebase>
													<ntsc>FALSE</ntsc>
												</rate>
												<width>1280</width>
												<height>720</height>
												<anamorphic>FALSE</anamorphic>
												<pixelaspectratio>square</pixelaspectratio>
												<fielddominance>lower</fielddominance>
											</samplecharacteristics>
										</video>
									</media>
								</file>
							</clipitem>
						</track>
					</video>
				</media>
				<logginginfo>
					<description />
					<scene />
					<shottake />
					<good />
					<originalvideofilename />
					<originalaudiofilename />
					<lognote>[UE4ShotSection=/Game/Trailer/Version2/MasterSequence.MasterSequence:MovieScene_0.MovieSceneCinematicShotTrack_0.MovieSceneCinematicShotSection_11][UE4ShotStartOffset=0][UE4ShotHandleFrames=0]</lognote>
				</logginginfo>
				<colorinfo>
					<lut />
					<lut1 />
					<asc_sop />
					<asc_sat />
					<lut2 />
				</colorinfo>
			</clip>
			<clip id="masterclip-5">
				<masterclipid>masterclip-5</masterclipid>
				<ismasterclip>TRUE</ismasterclip>
				<duration>259</duration>
				<rate>
					<timebase>30</timebase>
					<ntsc>FALSE</ntsc>
				</rate>
				<in>1</in>
				<out>259</out>
				<name>TS5</name>
				<media>
					<video>
						<track>
							<clipitem id="clipitem-5">
								<masterclipid>masterclip-5</masterclipid>
								<ismasterclip>TRUE</ismasterclip>
								<name>TS5</name>
								<enabled>TRUE</enabled>
								<duration>259</duration>
								<rate>
									<timebase>30</timebase>
									<ntsc>FALSE</ntsc>
								</rate>
								<in>1</in>
								<out>259</out>
								<anamorphic>FALSE</anamorphic>
								<pixelaspectratio>square</pixelaspectratio>
								<fielddominance>lower</fielddominance>
								<file id="file-5">
									<name>TS5.avi</name>
									<pathurl>file://localhost/C%3a/Users/Nicklas%20Sandin/Documents/GitHub/Attached/Content/Developers/NicklasSandin/Collections/TS5.avi</pathurl>
									<rate>
										<timebase>30</timebase>
										<ntsc>FALSE</ntsc>
									</rate>
									<duration>259</duration>
									<timecode>
										<rate>
											<timebase>30</timebase>
											<ntsc>FALSE</ntsc>
										</rate>
										<string>00:00:00:00</string>
										<frame>0</frame>
									</timecode>
									<media>
										<video>
											<samplecharacteristics>
												<rate>
													<timebase>30</timebase>
													<ntsc>FALSE</ntsc>
												</rate>
												<width>1280</width>
												<height>720</height>
												<anamorphic>FALSE</anamorphic>
												<pixelaspectratio>square</pixelaspectratio>
												<fielddominance>lower</fielddominance>
											</samplecharacteristics>
										</video>
									</media>
								</file>
							</clipitem>
						</track>
					</video>
				</media>
				<logginginfo>
					<description />
					<scene />
					<shottake />
					<good />
					<originalvideofilename />
					<originalaudiofilename />
					<lognote>[UE4ShotSection=/Game/Trailer/Version2/MasterSequence.MasterSequence:MovieScene_0.MovieSceneCinematicShotTrack_0.MovieSceneCinematicShotSection_16][UE4ShotStartOffset=0][UE4ShotHandleFrames=0]</lognote>
				</logginginfo>
				<colorinfo>
					<lut />
					<lut1 />
					<asc_sop />
					<asc_sat />
					<lut2 />
				</colorinfo>
			</clip>
			<clip id="masterclip-6">
				<masterclipid>masterclip-6</masterclipid>
				<ismasterclip>TRUE</ismasterclip>
				<duration>387</duration>
				<rate>
					<timebase>30</timebase>
					<ntsc>FALSE</ntsc>
				</rate>
				<in>1</in>
				<out>387</out>
				<name>TS6</name>
				<media>
					<video>
						<track>
							<clipitem id="clipitem-6">
								<masterclipid>masterclip-6</masterclipid>
								<ismasterclip>TRUE</ismasterclip>
								<name>TS6</name>
								<enabled>TRUE</enabled>
								<duration>387</duration>
								<rate>
									<timebase>30</timebase>
									<ntsc>FALSE</ntsc>
								</rate>
								<in>1</in>
								<out>387</out>
								<anamorphic>FALSE</anamorphic>
								<pixelaspectratio>square</pixelaspectratio>
								<fielddominance>lower</fielddominance>
								<file id="file-6">
									<name>TS6.avi</name>
									<pathurl>file://localhost/C%3a/Users/Nicklas%20Sandin/Documents/GitHub/Attached/Content/Developers/NicklasSandin/Collections/TS6.avi</pathurl>
									<rate>
										<timebase>30</timebase>
										<ntsc>FALSE</ntsc>
									</rate>
									<duration>387</duration>
									<timecode>
										<rate>
											<timebase>30</timebase>
											<ntsc>FALSE</ntsc>
										</rate>
										<string>00:00:00:00</string>
										<frame>0</frame>
									</timecode>
									<media>
										<video>
											<samplecharacteristics>
												<rate>
													<timebase>30</timebase>
													<ntsc>FALSE</ntsc>
												</rate>
												<width>1280</width>
												<height>720</height>
												<anamorphic>FALSE</anamorphic>
												<pixelaspectratio>square</pixelaspectratio>
												<fielddominance>lower</fielddominance>
											</samplecharacteristics>
										</video>
									</media>
								</file>
							</clipitem>
						</track>
					</video>
				</media>
				<logginginfo>
					<description />
					<scene />
					<shottake />
					<good />
					<originalvideofilename />
					<originalaudiofilename />
					<lognote>[UE4ShotSection=/Game/Trailer/Version2/MasterSequence.MasterSequence:MovieScene_0.MovieSceneCinematicShotTrack_0.MovieSceneCinematicShotSection_17][UE4ShotStartOffset=20][UE4ShotHandleFrames=0]</lognote>
				</logginginfo>
				<colorinfo>
					<lut />
					<lut1 />
					<asc_sop />
					<asc_sat />
					<lut2 />
				</colorinfo>
			</clip>
			<clip id="masterclip-7">
				<masterclipid>masterclip-7</masterclipid>
				<ismasterclip>TRUE</ismasterclip>
				<duration>500</duration>
				<rate>
					<timebase>30</timebase>
					<ntsc>FALSE</ntsc>
				</rate>
				<in>1</in>
				<out>500</out>
				<name>TS7</name>
				<media>
					<video>
						<track>
							<clipitem id="clipitem-7">
								<masterclipid>masterclip-7</masterclipid>
								<ismasterclip>TRUE</ismasterclip>
								<name>TS7</name>
								<enabled>TRUE</enabled>
								<duration>500</duration>
								<rate>
									<timebase>30</timebase>
									<ntsc>FALSE</ntsc>
								</rate>
								<in>1</in>
								<out>500</out>
								<anamorphic>FALSE</anamorphic>
								<pixelaspectratio>square</pixelaspectratio>
								<fielddominance>lower</fielddominance>
								<file id="file-7">
									<name>TS7.avi</name>
									<pathurl>file://localhost/C%3a/Users/Nicklas%20Sandin/Documents/GitHub/Attached/Content/Developers/NicklasSandin/Collections/TS7.avi</pathurl>
									<rate>
										<timebase>30</timebase>
										<ntsc>FALSE</ntsc>
									</rate>
									<duration>500</duration>
									<timecode>
										<rate>
											<timebase>30</timebase>
											<ntsc>FALSE</ntsc>
										</rate>
										<string>00:00:00:00</string>
										<frame>0</frame>
									</timecode>
									<media>
										<video>
											<samplecharacteristics>
												<rate>
													<timebase>30</timebase>
													<ntsc>FALSE</ntsc>
												</rate>
												<width>1280</width>
												<height>720</height>
												<anamorphic>FALSE</anamorphic>
												<pixelaspectratio>square</pixelaspectratio>
												<fielddominance>lower</fielddominance>
											</samplecharacteristics>
										</video>
									</media>
								</file>
							</clipitem>
						</track>
					</video>
				</media>
				<logginginfo>
					<description />
					<scene />
					<shottake />
					<good />
					<originalvideofilename />
					<originalaudiofilename />
					<lognote>[UE4ShotSection=/Game/Trailer/Version2/MasterSequence.MasterSequence:MovieScene_0.MovieSceneCinematicShotTrack_0.MovieSceneCinematicShotSection_18][UE4ShotStartOffset=0][UE4ShotHandleFrames=0]</lognote>
				</logginginfo>
				<colorinfo>
					<lut />
					<lut1 />
					<asc_sop />
					<asc_sat />
					<lut2 />
				</colorinfo>
			</clip>
			<clip id="masterclip-8">
				<masterclipid>masterclip-8</masterclipid>
				<ismasterclip>TRUE</ismasterclip>
				<duration>500</duration>
				<rate>
					<timebase>30</timebase>
					<ntsc>FALSE</ntsc>
				</rate>
				<in>1</in>
				<out>500</out>
				<name>TS8</name>
				<media>
					<video>
						<track>
							<clipitem id="clipitem-8">
								<masterclipid>masterclip-8</masterclipid>
								<ismasterclip>TRUE</ismasterclip>
								<name>TS8</name>
								<enabled>TRUE</enabled>
								<duration>500</duration>
								<rate>
									<timebase>30</timebase>
									<ntsc>FALSE</ntsc>
								</rate>
								<in>1</in>
								<out>500</out>
								<anamorphic>FALSE</anamorphic>
								<pixelaspectratio>square</pixelaspectratio>
								<fielddominance>lower</fielddominance>
								<file id="file-8">
									<name>TS8.avi</name>
									<pathurl>file://localhost/C%3a/Users/Nicklas%20Sandin/Documents/GitHub/Attached/Content/Developers/NicklasSandin/Collections/TS8.avi</pathurl>
									<rate>
										<timebase>30</timebase>
										<ntsc>FALSE</ntsc>
									</rate>
									<duration>500</duration>
									<timecode>
										<rate>
											<timebase>30</timebase>
											<ntsc>FALSE</ntsc>
										</rate>
										<string>00:00:00:00</string>
										<frame>0</frame>
									</timecode>
									<media>
										<video>
											<samplecharacteristics>
												<rate>
													<timebase>30</timebase>
													<ntsc>FALSE</ntsc>
												</rate>
												<width>1280</width>
												<height>720</height>
												<anamorphic>FALSE</anamorphic>
												<pixelaspectratio>square</pixelaspectratio>
												<fielddominance>lower</fielddominance>
											</samplecharacteristics>
										</video>
									</media>
								</file>
							</clipitem>
						</track>
					</video>
				</media>
				<logginginfo>
					<description />
					<scene />
					<shottake />
					<good />
					<originalvideofilename />
					<originalaudiofilename />
					<lognote>[UE4ShotSection=/Game/Trailer/Version2/MasterSequence.MasterSequence:MovieScene_0.MovieSceneCinematicShotTrack_0.MovieSceneCinematicShotSection_19][UE4ShotStartOffset=0][UE4ShotHandleFrames=0]</lognote>
				</logginginfo>
				<colorinfo>
					<lut />
					<lut1 />
					<asc_sop />
					<asc_sat />
					<lut2 />
				</colorinfo>
			</clip>
			<clip id="masterclip-9">
				<masterclipid>masterclip-9</masterclipid>
				<ismasterclip>TRUE</ismasterclip>
				<duration>600</duration>
				<rate>
					<timebase>30</timebase>
					<ntsc>FALSE</ntsc>
				</rate>
				<in>1</in>
				<out>600</out>
				<name>TS9</name>
				<media>
					<video>
						<track>
							<clipitem id="clipitem-9">
								<masterclipid>masterclip-9</masterclipid>
								<ismasterclip>TRUE</ismasterclip>
								<name>TS9</name>
								<enabled>TRUE</enabled>
								<duration>600</duration>
								<rate>
									<timebase>30</timebase>
									<ntsc>FALSE</ntsc>
								</rate>
								<in>1</in>
								<out>600</out>
								<anamorphic>FALSE</anamorphic>
								<pixelaspectratio>square</pixelaspectratio>
								<fielddominance>lower</fielddominance>
								<file id="file-9">
									<name>TS9.avi</name>
									<pathurl>file://localhost/C%3a/Users/Nicklas%20Sandin/Documents/GitHub/Attached/Content/Developers/NicklasSandin/Collections/TS9.avi</pathurl>
									<rate>
										<timebase>30</timebase>
										<ntsc>FALSE</ntsc>
									</rate>
									<duration>600</duration>
									<timecode>
										<rate>
											<timebase>30</timebase>
											<ntsc>FALSE</ntsc>
										</rate>
										<string>00:00:00:00</string>
										<frame>0</frame>
									</timecode>
									<media>
										<video>
											<samplecharacteristics>
												<rate>
													<timebase>30</timebase>
													<ntsc>FALSE</ntsc>
												</rate>
												<width>1280</width>
												<height>720</height>
												<anamorphic>FALSE</anamorphic>
												<pixelaspectratio>square</pixelaspectratio>
												<fielddominance>lower</fielddominance>
											</samplecharacteristics>
										</video>
									</media>
								</file>
							</clipitem>
						</track>
					</video>
				</media>
				<logginginfo>
					<description />
					<scene />
					<shottake />
					<good />
					<originalvideofilename />
					<originalaudiofilename />
					<lognote>[UE4ShotSection=/Game/Trailer/Version2/MasterSequence.MasterSequence:MovieScene_0.MovieSceneCinematicShotTrack_0.MovieSceneCinematicShotSection_20][UE4ShotStartOffset=0][UE4ShotHandleFrames=0]</lognote>
				</logginginfo>
				<colorinfo>
					<lut />
					<lut1 />
					<asc_sop />
					<asc_sat />
					<lut2 />
				</colorinfo>
			</clip>
			<sequence id="sequence-1">
				<duration>4901</duration>
				<rate>
					<timebase>30</timebase>
					<ntsc>FALSE</ntsc>
				</rate>
				<name>MasterSequence</name>
				<media>
					<video>
						<format>
							<samplecharacteristics>
								<rate>
									<timebase>30</timebase>
									<ntsc>FALSE</ntsc>
								</rate>
								<width>1280</width>
								<height>720</height>
								<anamorphic>FALSE</anamorphic>
								<pixelaspectratio>square</pixelaspectratio>
								<fielddominance>lower</fielddominance>
							</samplecharacteristics>
						</format>
						<track>
							<clipitem id="clipitem-10">
								<masterclipid>masterclip-1</masterclipid>
								<ismasterclip>FALSE</ismasterclip>
								<name>TS1</name>
								<enabled>TRUE</enabled>
								<duration>500</duration>
								<rate>
									<timebase>30</timebase>
									<ntsc>FALSE</ntsc>
								</rate>
								<start>0</start>
								<end>500</end>
								<in>1</in>
								<out>500</out>
								<file id="file-1" />
							</clipitem>
							<clipitem id="clipitem-11">
								<masterclipid>masterclip-2</masterclipid>
								<ismasterclip>FALSE</ismasterclip>
								<name>TS2</name>
								<enabled>TRUE</enabled>
								<duration>456</duration>
								<rate>
									<timebase>30</timebase>
									<ntsc>FALSE</ntsc>
								</rate>
								<start>500</start>
								<end>956</end>
								<in>1</in>
								<out>456</out>
								<file id="file-2" />
							</clipitem>
							<clipitem id="clipitem-12">
								<masterclipid>masterclip-3</masterclipid>
								<ismasterclip>FALSE</ismasterclip>
								<name>TS3</name>
								<enabled>TRUE</enabled>
								<duration>385</duration>
								<rate>
									<timebase>30</timebase>
									<ntsc>FALSE</ntsc>
								</rate>
								<start>956</start>
								<end>1341</end>
								<in>1</in>
								<out>385</out>
								<file id="file-3" />
							</clipitem>
							<clipitem id="clipitem-13">
								<masterclipid>masterclip-4</masterclipid>
								<ismasterclip>FALSE</ismasterclip>
								<name>TS4</name>
								<enabled>TRUE</enabled>
								<duration>206</duration>
								<rate>
									<timebase>30</timebase>
									<ntsc>FALSE</ntsc>
								</rate>
								<start>1341</start>
								<end>1547</end>
								<in>1</in>
								<out>206</out>
								<file id="file-4" />
							</clipitem>
							<clipitem id="clipitem-14">
								<masterclipid>masterclip-5</masterclipid>
								<ismasterclip>FALSE</ismasterclip>
								<name>TS5</name>
								<enabled>TRUE</enabled>
								<duration>259</duration>
								<rate>
									<timebase>30</timebase>
									<ntsc>FALSE</ntsc>
								</rate>
								<start>1547</start>
								<end>1806</end>
								<in>1</in>
								<out>259</out>
								<file id="file-5" />
							</clipitem>
							<clipitem id="clipitem-15">
								<masterclipid>masterclip-6</masterclipid>
								<ismasterclip>FALSE</ismasterclip>
								<name>TS6</name>
								<enabled>TRUE</enabled>
								<duration>387</duration>
								<rate>
									<timebase>30</timebase>
									<ntsc>FALSE</ntsc>
								</rate>
								<start>1806</start>
								<end>2193</end>
								<in>1</in>
								<out>387</out>
								<file id="file-6" />
							</clipitem>
							<clipitem id="clipitem-16">
								<masterclipid>masterclip-7</masterclipid>
								<ismasterclip>FALSE</ismasterclip>
								<name>TS7</name>
								<enabled>TRUE</enabled>
								<duration>500</duration>
								<rate>
									<timebase>30</timebase>
									<ntsc>FALSE</ntsc>
								</rate>
								<start>2193</start>
								<end>2693</end>
								<in>1</in>
								<out>500</out>
								<file id="file-7" />
							</clipitem>
							<clipitem id="clipitem-17">
								<masterclipid>masterclip-8</masterclipid>
								<ismasterclip>FALSE</ismasterclip>
								<name>TS8</name>
								<enabled>TRUE</enabled>
								<duration>500</duration>
								<rate>
									<timebase>30</timebase>
									<ntsc>FALSE</ntsc>
								</rate>
								<start>2693</start>
								<end>3193</end>
								<in>1</in>
								<out>500</out>
								<file id="file-8" />
							</clipitem>
							<clipitem id="clipitem-18">
								<masterclipid>masterclip-9</masterclipid>
								<ismasterclip>FALSE</ismasterclip>
								<name>TS9</name>
								<enabled>TRUE</enabled>
								<duration>600</duration>
								<rate>
									<timebase>30</timebase>
									<ntsc>FALSE</ntsc>
								</rate>
								<start>3193</start>
								<end>3793</end>
								<in>1</in>
								<out>600</out>
								<file id="file-9" />
							</clipitem>
							<enabled>TRUE</enabled>
							<locked>FALSE</locked>
						</track>
					</video>
					<audio>
						<numOutputChannels>1</numOutputChannels>
						<format>
							<samplecharacteristics>
								<depth>16</depth>
								<samplerate>44100</samplerate>
							</samplecharacteristics>
						</format>
						<outputs>
							<group>
								<index>1</index>
								<numchannels>1</numchannels>
								<downmix>0</downmix>
								<channel>
									<index>1</index>
								</channel>
							</group>
						</outputs>
					</audio>
				</media>
				<timecode>
					<rate>
						<timebase>30</timebase>
						<ntsc>FALSE</ntsc>
					</rate>
					<string>00:00:00:00</string>
					<frame>0</frame>
				</timecode>
			</sequence>
		</children>
	</project>
</xmeml>
