<?xml version="1.0" encoding="UTF-8"?>
<xmeml version="4">
	<project>
		<name>SequenceProject</name>
		<children>
			<clip id="masterclip-1">
				<masterclipid>masterclip-1</masterclipid>
				<ismasterclip>TRUE</ismasterclip>
				<duration>194</duration>
				<rate>
					<timebase>30</timebase>
					<ntsc>FALSE</ntsc>
				</rate>
				<in>1</in>
				<out>194</out>
				<name>IntroCinematic_Shot1</name>
				<media>
					<video>
						<track>
							<clipitem id="clipitem-1">
								<masterclipid>masterclip-1</masterclipid>
								<ismasterclip>TRUE</ismasterclip>
								<name>IntroCinematic_Shot1</name>
								<enabled>TRUE</enabled>
								<duration>194</duration>
								<rate>
									<timebase>30</timebase>
									<ntsc>FALSE</ntsc>
								</rate>
								<in>1</in>
								<out>194</out>
								<anamorphic>FALSE</anamorphic>
								<pixelaspectratio>square</pixelaspectratio>
								<fielddominance>lower</fielddominance>
								<file id="file-1">
									<name>IntroCinematic_Shot1.avi</name>
									<pathurl>file://localhost/C%3a/Users/Nicklas%20Sandin/Documents/GitHub/Attached/Content/Developers/NicklasSandin/Collections/IntroCinematic_Shot1.avi</pathurl>
									<rate>
										<timebase>30</timebase>
										<ntsc>FALSE</ntsc>
									</rate>
									<duration>194</duration>
									<timecode>
										<rate>
											<timebase>30</timebase>
											<ntsc>FALSE</ntsc>
										</rate>
										<string>00:00:00:00</string>
										<frame>0</frame>
									</timecode>
									<media>
										<video>
											<samplecharacteristics>
												<rate>
													<timebase>30</timebase>
													<ntsc>FALSE</ntsc>
												</rate>
												<width>1280</width>
												<height>720</height>
												<anamorphic>FALSE</anamorphic>
												<pixelaspectratio>square</pixelaspectratio>
												<fielddominance>lower</fielddominance>
											</samplecharacteristics>
										</video>
									</media>
								</file>
							</clipitem>
						</track>
					</video>
				</media>
				<logginginfo>
					<description />
					<scene />
					<shottake />
					<good />
					<originalvideofilename />
					<originalaudiofilename />
					<lognote>[UE4ShotSection=/Game/IntroCinematic/Sequence.Sequence:MovieScene_0.MovieSceneCinematicShotTrack_0.MovieSceneCinematicShotSection_5][UE4ShotStartOffset=0][UE4ShotHandleFrames=0]</lognote>
				</logginginfo>
				<colorinfo>
					<lut />
					<lut1 />
					<asc_sop />
					<asc_sat />
					<lut2 />
				</colorinfo>
			</clip>
			<clip id="masterclip-2">
				<masterclipid>masterclip-2</masterclipid>
				<ismasterclip>TRUE</ismasterclip>
				<duration>164</duration>
				<rate>
					<timebase>30</timebase>
					<ntsc>FALSE</ntsc>
				</rate>
				<in>1</in>
				<out>164</out>
				<name>IntroCinematic_Shot2</name>
				<media>
					<video>
						<track>
							<clipitem id="clipitem-2">
								<masterclipid>masterclip-2</masterclipid>
								<ismasterclip>TRUE</ismasterclip>
								<name>IntroCinematic_Shot2</name>
								<enabled>TRUE</enabled>
								<duration>164</duration>
								<rate>
									<timebase>30</timebase>
									<ntsc>FALSE</ntsc>
								</rate>
								<in>1</in>
								<out>164</out>
								<anamorphic>FALSE</anamorphic>
								<pixelaspectratio>square</pixelaspectratio>
								<fielddominance>lower</fielddominance>
								<file id="file-2">
									<name>IntroCinematic_Shot2.avi</name>
									<pathurl>file://localhost/C%3a/Users/Nicklas%20Sandin/Documents/GitHub/Attached/Content/Developers/NicklasSandin/Collections/IntroCinematic_Shot2.avi</pathurl>
									<rate>
										<timebase>30</timebase>
										<ntsc>FALSE</ntsc>
									</rate>
									<duration>164</duration>
									<timecode>
										<rate>
											<timebase>30</timebase>
											<ntsc>FALSE</ntsc>
										</rate>
										<string>00:00:00:00</string>
										<frame>0</frame>
									</timecode>
									<media>
										<video>
											<samplecharacteristics>
												<rate>
													<timebase>30</timebase>
													<ntsc>FALSE</ntsc>
												</rate>
												<width>1280</width>
												<height>720</height>
												<anamorphic>FALSE</anamorphic>
												<pixelaspectratio>square</pixelaspectratio>
												<fielddominance>lower</fielddominance>
											</samplecharacteristics>
										</video>
									</media>
								</file>
							</clipitem>
						</track>
					</video>
				</media>
				<logginginfo>
					<description />
					<scene />
					<shottake />
					<good />
					<originalvideofilename />
					<originalaudiofilename />
					<lognote>[UE4ShotSection=/Game/IntroCinematic/Sequence.Sequence:MovieScene_0.MovieSceneCinematicShotTrack_0.MovieSceneCinematicShotSection_1][UE4ShotStartOffset=203][UE4ShotHandleFrames=0]</lognote>
				</logginginfo>
				<colorinfo>
					<lut />
					<lut1 />
					<asc_sop />
					<asc_sat />
					<lut2 />
				</colorinfo>
			</clip>
			<clip id="masterclip-3">
				<masterclipid>masterclip-3</masterclipid>
				<ismasterclip>TRUE</ismasterclip>
				<duration>256</duration>
				<rate>
					<timebase>30</timebase>
					<ntsc>FALSE</ntsc>
				</rate>
				<in>1</in>
				<out>256</out>
				<name>IntroCinematic_Shot3</name>
				<media>
					<video>
						<track>
							<clipitem id="clipitem-3">
								<masterclipid>masterclip-3</masterclipid>
								<ismasterclip>TRUE</ismasterclip>
								<name>IntroCinematic_Shot3</name>
								<enabled>TRUE</enabled>
								<duration>256</duration>
								<rate>
									<timebase>30</timebase>
									<ntsc>FALSE</ntsc>
								</rate>
								<in>1</in>
								<out>256</out>
								<anamorphic>FALSE</anamorphic>
								<pixelaspectratio>square</pixelaspectratio>
								<fielddominance>lower</fielddominance>
								<file id="file-3">
									<name>IntroCinematic_Shot3.avi</name>
									<pathurl>file://localhost/C%3a/Users/Nicklas%20Sandin/Documents/GitHub/Attached/Content/Developers/NicklasSandin/Collections/IntroCinematic_Shot3.avi</pathurl>
									<rate>
										<timebase>30</timebase>
										<ntsc>FALSE</ntsc>
									</rate>
									<duration>256</duration>
									<timecode>
										<rate>
											<timebase>30</timebase>
											<ntsc>FALSE</ntsc>
										</rate>
										<string>00:00:00:00</string>
										<frame>0</frame>
									</timecode>
									<media>
										<video>
											<samplecharacteristics>
												<rate>
													<timebase>30</timebase>
													<ntsc>FALSE</ntsc>
												</rate>
												<width>1280</width>
												<height>720</height>
												<anamorphic>FALSE</anamorphic>
												<pixelaspectratio>square</pixelaspectratio>
												<fielddominance>lower</fielddominance>
											</samplecharacteristics>
										</video>
									</media>
								</file>
							</clipitem>
						</track>
					</video>
				</media>
				<logginginfo>
					<description />
					<scene />
					<shottake />
					<good />
					<originalvideofilename />
					<originalaudiofilename />
					<lognote>[UE4ShotSection=/Game/IntroCinematic/Sequence.Sequence:MovieScene_0.MovieSceneCinematicShotTrack_0.MovieSceneCinematicShotSection_2][UE4ShotStartOffset=368][UE4ShotHandleFrames=0]</lognote>
				</logginginfo>
				<colorinfo>
					<lut />
					<lut1 />
					<asc_sop />
					<asc_sat />
					<lut2 />
				</colorinfo>
			</clip>
			<clip id="masterclip-4">
				<masterclipid>masterclip-4</masterclipid>
				<ismasterclip>TRUE</ismasterclip>
				<duration>240</duration>
				<rate>
					<timebase>30</timebase>
					<ntsc>FALSE</ntsc>
				</rate>
				<in>1</in>
				<out>240</out>
				<name>IntroCinematic_Shot4</name>
				<media>
					<video>
						<track>
							<clipitem id="clipitem-4">
								<masterclipid>masterclip-4</masterclipid>
								<ismasterclip>TRUE</ismasterclip>
								<name>IntroCinematic_Shot4</name>
								<enabled>TRUE</enabled>
								<duration>240</duration>
								<rate>
									<timebase>30</timebase>
									<ntsc>FALSE</ntsc>
								</rate>
								<in>1</in>
								<out>240</out>
								<anamorphic>FALSE</anamorphic>
								<pixelaspectratio>square</pixelaspectratio>
								<fielddominance>lower</fielddominance>
								<file id="file-4">
									<name>IntroCinematic_Shot4.avi</name>
									<pathurl>file://localhost/C%3a/Users/Nicklas%20Sandin/Documents/GitHub/Attached/Content/Developers/NicklasSandin/Collections/IntroCinematic_Shot4.avi</pathurl>
									<rate>
										<timebase>30</timebase>
										<ntsc>FALSE</ntsc>
									</rate>
									<duration>240</duration>
									<timecode>
										<rate>
											<timebase>30</timebase>
											<ntsc>FALSE</ntsc>
										</rate>
										<string>00:00:00:00</string>
										<frame>0</frame>
									</timecode>
									<media>
										<video>
											<samplecharacteristics>
												<rate>
													<timebase>30</timebase>
													<ntsc>FALSE</ntsc>
												</rate>
												<width>1280</width>
												<height>720</height>
												<anamorphic>FALSE</anamorphic>
												<pixelaspectratio>square</pixelaspectratio>
												<fielddominance>lower</fielddominance>
											</samplecharacteristics>
										</video>
									</media>
								</file>
							</clipitem>
						</track>
					</video>
				</media>
				<logginginfo>
					<description />
					<scene />
					<shottake />
					<good />
					<originalvideofilename />
					<originalaudiofilename />
					<lognote>[UE4ShotSection=/Game/IntroCinematic/Sequence.Sequence:MovieScene_0.MovieSceneCinematicShotTrack_0.MovieSceneCinematicShotSection_3][UE4ShotStartOffset=88][UE4ShotHandleFrames=0]</lognote>
				</logginginfo>
				<colorinfo>
					<lut />
					<lut1 />
					<asc_sop />
					<asc_sat />
					<lut2 />
				</colorinfo>
			</clip>
			<clip id="masterclip-5">
				<masterclipid>masterclip-5</masterclipid>
				<ismasterclip>TRUE</ismasterclip>
				<duration>107</duration>
				<rate>
					<timebase>30</timebase>
					<ntsc>FALSE</ntsc>
				</rate>
				<in>1</in>
				<out>107</out>
				<name>IntroCinematic_Shot5</name>
				<media>
					<video>
						<track>
							<clipitem id="clipitem-5">
								<masterclipid>masterclip-5</masterclipid>
								<ismasterclip>TRUE</ismasterclip>
								<name>IntroCinematic_Shot5</name>
								<enabled>TRUE</enabled>
								<duration>107</duration>
								<rate>
									<timebase>30</timebase>
									<ntsc>FALSE</ntsc>
								</rate>
								<in>1</in>
								<out>107</out>
								<anamorphic>FALSE</anamorphic>
								<pixelaspectratio>square</pixelaspectratio>
								<fielddominance>lower</fielddominance>
								<file id="file-5">
									<name>IntroCinematic_Shot5.avi</name>
									<pathurl>file://localhost/C%3a/Users/Nicklas%20Sandin/Documents/GitHub/Attached/Content/Developers/NicklasSandin/Collections/IntroCinematic_Shot5.avi</pathurl>
									<rate>
										<timebase>30</timebase>
										<ntsc>FALSE</ntsc>
									</rate>
									<duration>107</duration>
									<timecode>
										<rate>
											<timebase>30</timebase>
											<ntsc>FALSE</ntsc>
										</rate>
										<string>00:00:00:00</string>
										<frame>0</frame>
									</timecode>
									<media>
										<video>
											<samplecharacteristics>
												<rate>
													<timebase>30</timebase>
													<ntsc>FALSE</ntsc>
												</rate>
												<width>1280</width>
												<height>720</height>
												<anamorphic>FALSE</anamorphic>
												<pixelaspectratio>square</pixelaspectratio>
												<fielddominance>lower</fielddominance>
											</samplecharacteristics>
										</video>
									</media>
								</file>
							</clipitem>
						</track>
					</video>
				</media>
				<logginginfo>
					<description />
					<scene />
					<shottake />
					<good />
					<originalvideofilename />
					<originalaudiofilename />
					<lognote>[UE4ShotSection=/Game/IntroCinematic/Sequence.Sequence:MovieScene_0.MovieSceneCinematicShotTrack_0.MovieSceneCinematicShotSection_4][UE4ShotStartOffset=117][UE4ShotHandleFrames=0]</lognote>
				</logginginfo>
				<colorinfo>
					<lut />
					<lut1 />
					<asc_sop />
					<asc_sat />
					<lut2 />
				</colorinfo>
			</clip>
			<clip id="masterclip-6">
				<masterclipid>masterclip-6</masterclipid>
				<ismasterclip>TRUE</ismasterclip>
				<duration>218</duration>
				<rate>
					<timebase>30</timebase>
					<ntsc>FALSE</ntsc>
				</rate>
				<in>1</in>
				<out>218</out>
				<name>IntroCinematic_Shot7</name>
				<media>
					<video>
						<track>
							<clipitem id="clipitem-6">
								<masterclipid>masterclip-6</masterclipid>
								<ismasterclip>TRUE</ismasterclip>
								<name>IntroCinematic_Shot7</name>
								<enabled>TRUE</enabled>
								<duration>218</duration>
								<rate>
									<timebase>30</timebase>
									<ntsc>FALSE</ntsc>
								</rate>
								<in>1</in>
								<out>218</out>
								<anamorphic>FALSE</anamorphic>
								<pixelaspectratio>square</pixelaspectratio>
								<fielddominance>lower</fielddominance>
								<file id="file-6">
									<name>IntroCinematic_Shot7.avi</name>
									<pathurl>file://localhost/C%3a/Users/Nicklas%20Sandin/Documents/GitHub/Attached/Content/Developers/NicklasSandin/Collections/IntroCinematic_Shot7.avi</pathurl>
									<rate>
										<timebase>30</timebase>
										<ntsc>FALSE</ntsc>
									</rate>
									<duration>218</duration>
									<timecode>
										<rate>
											<timebase>30</timebase>
											<ntsc>FALSE</ntsc>
										</rate>
										<string>00:00:00:00</string>
										<frame>0</frame>
									</timecode>
									<media>
										<video>
											<samplecharacteristics>
												<rate>
													<timebase>30</timebase>
													<ntsc>FALSE</ntsc>
												</rate>
												<width>1280</width>
												<height>720</height>
												<anamorphic>FALSE</anamorphic>
												<pixelaspectratio>square</pixelaspectratio>
												<fielddominance>lower</fielddominance>
											</samplecharacteristics>
										</video>
									</media>
								</file>
							</clipitem>
						</track>
					</video>
				</media>
				<logginginfo>
					<description />
					<scene />
					<shottake />
					<good />
					<originalvideofilename />
					<originalaudiofilename />
					<lognote>[UE4ShotSection=/Game/IntroCinematic/Sequence.Sequence:MovieScene_0.MovieSceneCinematicShotTrack_0.MovieSceneCinematicShotSection_6][UE4ShotStartOffset=109][UE4ShotHandleFrames=0]</lognote>
				</logginginfo>
				<colorinfo>
					<lut />
					<lut1 />
					<asc_sop />
					<asc_sat />
					<lut2 />
				</colorinfo>
			</clip>
			<sequence id="sequence-1">
				<duration>1180</duration>
				<rate>
					<timebase>30</timebase>
					<ntsc>FALSE</ntsc>
				</rate>
				<name>Sequence</name>
				<media>
					<video>
						<format>
							<samplecharacteristics>
								<rate>
									<timebase>30</timebase>
									<ntsc>FALSE</ntsc>
								</rate>
								<width>1280</width>
								<height>720</height>
								<anamorphic>FALSE</anamorphic>
								<pixelaspectratio>square</pixelaspectratio>
								<fielddominance>lower</fielddominance>
							</samplecharacteristics>
						</format>
						<track>
							<clipitem id="clipitem-7">
								<masterclipid>masterclip-1</masterclipid>
								<ismasterclip>FALSE</ismasterclip>
								<name>IntroCinematic_Shot1</name>
								<enabled>TRUE</enabled>
								<duration>194</duration>
								<rate>
									<timebase>30</timebase>
									<ntsc>FALSE</ntsc>
								</rate>
								<start>0</start>
								<end>194</end>
								<in>1</in>
								<out>194</out>
								<file id="file-1" />
							</clipitem>
							<clipitem id="clipitem-8">
								<masterclipid>masterclip-2</masterclipid>
								<ismasterclip>FALSE</ismasterclip>
								<name>IntroCinematic_Shot2</name>
								<enabled>TRUE</enabled>
								<duration>164</duration>
								<rate>
									<timebase>30</timebase>
									<ntsc>FALSE</ntsc>
								</rate>
								<start>194</start>
								<end>358</end>
								<in>1</in>
								<out>164</out>
								<file id="file-2" />
							</clipitem>
							<clipitem id="clipitem-9">
								<masterclipid>masterclip-3</masterclipid>
								<ismasterclip>FALSE</ismasterclip>
								<name>IntroCinematic_Shot3</name>
								<enabled>TRUE</enabled>
								<duration>256</duration>
								<rate>
									<timebase>30</timebase>
									<ntsc>FALSE</ntsc>
								</rate>
								<start>358</start>
								<end>614</end>
								<in>1</in>
								<out>256</out>
								<file id="file-3" />
							</clipitem>
							<clipitem id="clipitem-10">
								<masterclipid>masterclip-4</masterclipid>
								<ismasterclip>FALSE</ismasterclip>
								<name>IntroCinematic_Shot4</name>
								<enabled>TRUE</enabled>
								<duration>240</duration>
								<rate>
									<timebase>30</timebase>
									<ntsc>FALSE</ntsc>
								</rate>
								<start>614</start>
								<end>854</end>
								<in>1</in>
								<out>240</out>
								<file id="file-4" />
							</clipitem>
							<clipitem id="clipitem-11">
								<masterclipid>masterclip-5</masterclipid>
								<ismasterclip>FALSE</ismasterclip>
								<name>IntroCinematic_Shot5</name>
								<enabled>TRUE</enabled>
								<duration>107</duration>
								<rate>
									<timebase>30</timebase>
									<ntsc>FALSE</ntsc>
								</rate>
								<start>854</start>
								<end>961</end>
								<in>1</in>
								<out>107</out>
								<file id="file-5" />
							</clipitem>
							<clipitem id="clipitem-12">
								<masterclipid>masterclip-6</masterclipid>
								<ismasterclip>FALSE</ismasterclip>
								<name>IntroCinematic_Shot7</name>
								<enabled>TRUE</enabled>
								<duration>218</duration>
								<rate>
									<timebase>30</timebase>
									<ntsc>FALSE</ntsc>
								</rate>
								<start>961</start>
								<end>1179</end>
								<in>1</in>
								<out>218</out>
								<file id="file-6" />
							</clipitem>
							<enabled>TRUE</enabled>
							<locked>FALSE</locked>
						</track>
					</video>
					<audio>
						<numOutputChannels>1</numOutputChannels>
						<format>
							<samplecharacteristics>
								<depth>16</depth>
								<samplerate>44100</samplerate>
							</samplecharacteristics>
						</format>
						<outputs>
							<group>
								<index>1</index>
								<numchannels>1</numchannels>
								<downmix>0</downmix>
								<channel>
									<index>1</index>
								</channel>
							</group>
						</outputs>
					</audio>
				</media>
				<timecode>
					<rate>
						<timebase>30</timebase>
						<ntsc>FALSE</ntsc>
					</rate>
					<string>00:00:00:00</string>
					<frame>0</frame>
				</timecode>
			</sequence>
		</children>
	</project>
</xmeml>
